<?xml version="1.0" encoding="utf-8"?>
<!-- Generator: Adobe Illustrator 19.2.1, SVG Export Plug-In . SVG Version: 6.00 Build 0)  -->
<svg version="1.1" id="Layer_1" xmlns="http://www.w3.org/2000/svg" xmlns:xlink="http://www.w3.org/1999/xlink" x="0px" y="0px"
	 viewBox="0 0 178.2 127.7" style="enable-background:new 0 0 178.2 127.7;" xml:space="preserve">
<style type="text/css">
	.st0{fill:#414042;stroke:#414042;stroke-width:0.8531;stroke-miterlimit:10;}
	.st1{fill:#414042;}
	.st2{fill:none;stroke:#FFFFFF;stroke-width:4.8399;stroke-linecap:round;stroke-linejoin:round;stroke-miterlimit:10;}
</style>
<g>
	<path class="st0" d="M104.8,86.2h3.5l7.1,18.4h-3.6l-1.4-3.8h-7.5l-1.5,3.8h-3.6L104.8,86.2z M106.6,91.1l-2.5,6.3h4.9L106.6,91.1z
		"/>
	<path class="st0" d="M118.2,86.2h3.7c2,0,3.5,0.2,4.3,0.5c0.9,0.4,1.6,1,2.1,1.8c0.5,0.8,0.8,1.8,0.8,3c0,1.2-0.3,2.2-0.9,3
		c-0.6,0.8-1.5,1.4-2.6,1.8l4.4,8.2h-3.8l-4.1-7.8h-0.3v7.8h-3.5V86.2z M121.7,93.4h1.1c1.1,0,1.9-0.1,2.3-0.4
		c0.4-0.3,0.6-0.8,0.6-1.5c0-0.4-0.1-0.7-0.3-1c-0.2-0.3-0.5-0.5-0.8-0.6c-0.3-0.1-1-0.2-1.9-0.2h-1V93.4z"/>
	<path class="st0" d="M131.1,86.2h10.2v3.4H138v14.9h-3.5V89.7h-3.3V86.2z"/>
	<path class="st0" d="M143.7,86.2h10v3.4h-6.6V93h6.6v3.4h-6.6v4.8h6.6v3.4h-10V86.2z"/>
	<path class="st0" d="M99.3,108.4h9.1v3.4h-5.6v3.3h5.6v3.4h-5.6v8.3h-3.5V108.4z"/>
	<path class="st0" d="M116.1,108.4h3.5l7.1,18.4h-3.6l-1.4-3.8h-7.5l-1.5,3.8H109L116.1,108.4z M117.9,113.3l-2.5,6.3h4.9
		L117.9,113.3z"/>
	<path class="st0" d="M145.4,111.6L143,114c-1.7-1.8-3.5-2.6-5.6-2.6c-1.8,0-3.2,0.6-4.4,1.8c-1.2,1.2-1.8,2.7-1.8,4.4
		c0,1.2,0.3,2.3,0.8,3.3c0.5,1,1.3,1.7,2.3,2.2c1,0.5,2.1,0.8,3.2,0.8c1,0,1.9-0.2,2.8-0.6c0.8-0.4,1.8-1.1,2.8-2.1l2.4,2.5
		c-1.4,1.3-2.6,2.2-3.8,2.8c-1.2,0.5-2.6,0.8-4.1,0.8c-2.9,0-5.2-0.9-7-2.7s-2.7-4.1-2.7-7c0-1.8,0.4-3.5,1.2-4.9
		c0.8-1.4,2-2.6,3.6-3.4c1.5-0.9,3.2-1.3,5-1.3c1.5,0,3,0.3,4.4,1C143.2,109.6,144.4,110.5,145.4,111.6z"/>
	<path class="st0" d="M147.3,108.4h10.2v3.4h-3.3v14.9h-3.5v-14.9h-3.3V108.4z"/>
	<path class="st0" d="M168.2,108c2.6,0,4.8,0.9,6.7,2.8c1.9,1.9,2.8,4.2,2.8,6.9c0,2.7-0.9,5-2.8,6.8c-1.8,1.9-4.1,2.8-6.7,2.8
		c-2.8,0-5.1-1-6.9-2.9c-1.8-1.9-2.7-4.2-2.7-6.8c0-1.8,0.4-3.4,1.3-4.8c0.9-1.5,2-2.6,3.5-3.5S166.5,108,168.2,108z M168.2,111.4
		c-1.7,0-3.1,0.6-4.3,1.8s-1.7,2.7-1.7,4.5c0,2,0.7,3.6,2.2,4.8c1.1,0.9,2.4,1.4,3.9,1.4c1.7,0,3.1-0.6,4.2-1.8
		c1.2-1.2,1.8-2.7,1.8-4.4c0-1.7-0.6-3.2-1.8-4.4C171.3,112,169.9,111.4,168.2,111.4z"/>
</g>
<g id="XMLID_1_">
	<g>
		<path class="st1" d="M136.1,38c4,5.1,3.1,12.4-2,16.4l-5.5,4.3c-1.1,0.8-1.4,2.3-0.8,3.5c2.3,4.9,1.1,10.8-3.3,14.3
			c-4.4,3.5-10.5,3.3-14.7-0.1c-1-0.9-2.5-0.9-3.6,0l-5.5,4.3c-4.9,3.9-12.1,3.1-16.1-1.6c5.8-6.1,9.9-13.8,11.7-22.6
			c4.2-20.8-7.6-41.4-25.8-50.4c4.3-2.7,9.9-2.3,13.8,1c1.1,0.9,2.6,1,3.7,0.1l5.4-4.3c5.1-4,12.4-3.1,16.4,2l3.8,4.8
			c0.9,1.1,0.8,2.6,0,3.6c-3.6,4.4-3.7,10.9-0.1,15.6c3.7,4.7,10,6,15.2,3.6c1.2-0.6,2.7-0.3,3.5,0.8L136.1,38z"/>
		<path class="st1" d="M70.7,5.9c18.2,9,29.9,29.6,25.8,50.4c-1.8,8.8-5.9,16.6-11.7,22.6c-0.1-0.1-0.2-0.2-0.3-0.4l-2.2-2.8
			c-1.6-2-1.8-4.8-0.4-6.9c2.7-4.2,2.5-9.5-0.9-13.9c-3.8-4.9-9.5-6.6-15.5-4.2c-0.4,0.2-0.8,0.2-1.2,0.2c-0.9,0-1.7-0.4-2.3-1.1
			l-3.7-4.7c-4-5.1-3.1-12.4,2-16.4l5.4-4.3c1.1-0.9,1.4-2.4,0.7-3.6c-2.4-4.9-1.2-11,3.3-14.5C70,6.3,70.3,6.1,70.7,5.9z"/>
		<path class="st1" d="M81.2,82.3c3.5,4.9,2.6,11.8-2.2,15.5l-5.2,4.1c-1,0.8-2.3,0.7-3.3-0.1c-4.5-3.7-11-3.9-15.8-0.2
			c-4.8,3.7-6.1,10.2-3.5,15.4c0.5,1.1,0.2,2.4-0.7,3.2l-5.2,4.1c-4.9,3.9-12.1,3-16-1.9l-4.6-5.9c-0.8-1-2.1-1.3-3.2-0.7
			c-4.9,2.4-10.9,1.2-14.4-3.3c-3.5-4.4-3.3-10.6,0.2-14.8C8,96.9,8,95.6,7.3,94.6l-4.6-5.9c-3.9-4.9-3-12.1,1.9-16l5.2-4
			c0.2-0.2,0.4-0.3,0.6-0.3c6.2,12,17.6,21.3,31.9,24.1C56.7,95.3,70.8,91.2,81.2,82.3z"/>
		<path class="st1" d="M80.9,81.9c0.1,0.1,0.2,0.3,0.3,0.4c-10.4,8.8-24.5,13-38.9,10.1C28,89.6,16.5,80.4,10.3,68.3
			c0.9-0.4,2-0.2,2.7,0.5c4.5,4,11.3,4.3,16.2,0.5c4.9-3.8,6.2-10.6,3.3-15.8c-0.6-1.1-0.4-2.5,0.6-3.3l5.2-4c4.9-3.9,12.1-3,16,1.9
			l4.6,5.8c0.8,1,2.2,1.3,3.3,0.7c0.9-0.4,1.7-0.8,2.7-1c4.3-1,9.1,0.4,12,4.1c3.6,4.5,3.3,10.8-0.4,15c-0.8,0.9-0.9,2.3-0.1,3.3
			L80.9,81.9z"/>
	</g>
	<g>
		<path class="st2" d="M70.7,5.9c18.2,9,29.9,29.6,25.8,50.4c-1.8,8.8-5.9,16.6-11.7,22.6c-1.1,1.2-2.3,2.3-3.6,3.4
			c-10.4,8.8-24.5,13-38.9,10.1C28,89.6,16.5,80.4,10.3,68.3"/>
	</g>
</g>
</svg>
